# xmcd CD database file generated by freedbAccess_ocx
#
# Track frame offsets:
#       150
#       8427
#       16937
#       27140
#       34917
#       44455
#       54047
#       62532
#       70907
#       76490
#       83430
#       93377
#       100287
#       106875
#       117652
#       122060
#       132590
#       137667
#       153500
#       164370
#
# Disc length: 2321 seconds
#
# Revision: 0
# Processed by: cddbd v1.4PL0 Copyright (c) Steve Scherf et al.
# Submitted via: CDnGo 1.95
#
DISCID=fa090f14
DTITLE=Gene Autry - 20 Greatest Movie Hits
DYEAR=1999
DGENRE=Country
TTITLE0=That Silver-Haired Daddy Of Mine
TTITLE1=Tumbling Tumbleweeds
TTITLE2=My Buddy
TTITLE3=Back In The Saddle Again
TTITLE4=The Singing Hills
TTITLE5=Melody Ranch
TTITLE6=Be Honesy With Me
TTITLE7=Carry Me Back To The Lone Prairie
TTITLE8=I'm An Old Cowhand
TTITLE9=In The Jailhouse Now
TTITLE10=Blueberry Hill
TTITLE11=Deep In The Heart Of Texas
TTITLE12=Rocky Canyon
TTITLE13=Take Me Back To My Boots And Saddle
TTITLE14=Sioux City Sue
TTITLE15=Someday (You'll Want Me To Want You)
TTITLE16=Oklahoma Hills
TTITLE17=That's My Home
TTITLE18=Amapola
TTITLE19=Here Comes Santa Claus
EXTD=
EXTT0=
EXTT1=
EXTT2=
EXTT3=
EXTT4=
EXTT5=
EXTT6=
EXTT7=
EXTT8=
EXTT9=
EXTT10=
EXTT11=
EXTT12=
EXTT13=
EXTT14=
EXTT15=
EXTT16=
EXTT17=
EXTT18=
EXTT19=
PLAYORDER=
